<svg width="14" height="14" fill="none" xmlns="http://www.w3.org/2000/svg"><path d="M3.851 6.222L3.798 7l.053.778h7.81l-.646 1.555H4.307c.858 1.836 2.69 3.111 4.809 3.111a5.254 5.254 0 004.178-2.076v2.17A6.658 6.658 0 019.116 14c-2.978 0-5.508-1.944-6.457-4.667H0l.76-1.555h1.557L2.279 7l.038-.778H0l.76-1.555h1.899C3.609 1.944 6.138 0 9.116 0 11.015 0 12.762.809 14 2.108l-.653 1.586a5.35 5.35 0 00-1.872-1.575 5.22 5.22 0 00-2.36-.563c-2.119 0-3.95 1.275-4.808 3.11h8.637l-.646 1.556H3.851z" fill="#F4545A"/></svg>