<svg width="16" height="24" fill="none" xmlns="http://www.w3.org/2000/svg"><path d="M0 2.4h2.56V0h2.56v2.4h2.56V0h2.56v2.436c2.88.3 5.12 2.58 5.12 5.364 0 1.56-.704 3-1.843 3.96a5.529 5.529 0 011.824 1.934c.433.773.659 1.633.659 2.506 0 3-2.56 5.4-5.76 5.4V24H7.68v-2.4H5.12V24H2.56v-2.4H0l.64-2.4h1.92V4.8H0V2.4zm5.12 10.8v6h5.12a3.31 3.31 0 002.263-.879c.6-.562.937-1.325.937-2.121s-.337-1.559-.937-2.121a3.311 3.311 0 00-2.263-.879H5.12zm0-8.4v6H9.6a3.31 3.31 0 002.263-.879c.6-.562.937-1.325.937-2.121s-.337-1.559-.937-2.121A3.311 3.311 0 009.6 4.8H5.12z" fill="#F4545A"/></svg>