<svg width="17" height="17" fill="none" xmlns="http://www.w3.org/2000/svg"><path d="M5.904 3.11l-2.83 2.83a.52.52 0 000 .735l.21.209a.52.52 0 00.734 0l2.83-2.83a.52.52 0 000-.734l-.21-.21a.52.52 0 00-.734 0z" fill="#2D404E" fill-opacity=".1"/><path d="M11.278 7.488l.327-.327a2.595 2.595 0 00.01-3.67L8.87.76a2.596 2.596 0 00-3.67 0L.76 5.199a2.596 2.596 0 000 3.67l2.73 2.73a2.596 2.596 0 003.67 0l.209-.207L8.5 12.513h1.786v1.558h1.916v.846l1.49 1.5h3.114v-3.4l-5.528-5.529zm4.49 7.89h-1.63l-.919-.913v-1.453h-1.91v-1.558H8.916L7.358 9.897l-.934.97a1.557 1.557 0 01-2.201 0L1.492 8.111a1.557 1.557 0 010-2.201l4.444-4.444a1.557 1.557 0 012.2 0l2.732 2.73a1.557 1.557 0 010 2.202L9.829 7.436l5.94 6.012v1.93z" fill="#2D404E" fill-opacity=".1"/></svg>