<svg width="70" height="44" fill="none" xmlns="http://www.w3.org/2000/svg"><path d="M3.257 0A3.259 3.259 0 000 3.26v37.48C0 42.54 1.46 44 3.257 44h63.486A3.259 3.259 0 0070 40.74V3.26C70 1.46 68.54 0 66.743 0H3.257zm19.696 5.296c3.996 0 7.666 1.392 10.546 3.716a17.251 17.251 0 00-5.123 8.254h1.398a16.183 16.183 0 014.29-6.923 16.184 16.184 0 014.29 6.923h1.42a17.25 17.25 0 00-5.137-8.206A16.687 16.687 0 0145.22 5.296c9.26 0 16.767 7.515 16.767 16.785S54.48 38.866 45.22 38.866c-4.08 0-7.82-1.458-10.727-3.882 2.6-2.265 4.517-5.3 5.394-8.754H38.52a16.17 16.17 0 01-4.456 7.493 16.166 16.166 0 01-4.454-7.493h-1.302a17.242 17.242 0 005.336 8.64 16.74 16.74 0 01-10.69 3.834c-9.261 0-16.768-7.479-16.768-16.704 0-9.225 7.507-16.704 16.767-16.704zm21.01 11.8c-2.016 0-3.976 1.762-3.976 5.073 0 2.195 1.06 3.643 3.142 3.643.589 0 1.527-.24 1.527-.24l.31-1.919s-.856.434-1.444.434c-1.237 0-1.734-.953-1.734-1.977 0-2.078 1.065-3.221 2.25-3.221.89 0 1.604.503 1.604.503l.284-1.865s-1.057-.431-1.964-.431zm16.937.162l-1.752.004-.377 2.308s-.658-.896-1.688-.896c-1.602 0-2.936 1.904-2.936 4.095 0 1.413.71 2.8 2.166 2.8 1.047 0 1.627-.72 1.627-.72l-.076.615h1.702l1.334-8.206zm-50.186.024L9.32 25.508H11l1.063-6.203.158 6.203h1.203l2.244-6.203-.995 6.203h1.787l1.378-8.226h-2.765l-1.722 5.046-.09-5.046h-2.548zm17.575.534c-.038.038-1.017 5.69-1.017 6.378 0 1.019.57 1.474 1.373 1.467.576-.005 1.021-.15 1.227-.21l.064-.018.216-1.471c-.117 0-.29.05-.444.05-.6 0-.666-.32-.627-.556l.483-3.002h.912l.221-1.627h-.86l.175-1.011H28.29zm20.332.828a5.778 5.778 0 00-2.073.387l-.25 1.51s.743-.308 1.866-.308c.638 0 1.105.073 1.105.604 0 .323-.057.443-.057.443s-.504-.044-.737-.044c-1.48 0-3.036.65-3.036 2.603 0 1.54 1.02 1.892 1.654 1.892 1.207 0 1.728-.803 1.756-.806l-.057.67H50.3l.674-4.834c0-2.052-1.745-2.117-2.352-2.117zm-28.273.008a5.826 5.826 0 00-2.082.388l-.25 1.51s.746-.308 1.873-.308c.64 0 1.109.073 1.109.604 0 .323-.057.442-.057.442s-.506-.043-.74-.043c-1.486 0-3.047.648-3.047 2.6 0 1.54 1.024 1.893 1.659 1.893 1.212 0 1.735-.804 1.763-.806l-.057.67h1.514l.675-4.832c0-2.05-1.752-2.118-2.36-2.118zm5.346 0c-1.265 0-2.55.512-2.55 2.258 0 1.978 2.141 1.778 2.141 2.612 0 .556-.597.602-1.058.602-.798 0-1.516-.276-1.519-.263l-.23 1.51c.042.014.486.213 1.921.213.386 0 2.588.098 2.588-2.198 0-2.147-2.039-1.721-2.039-2.584 0-.429.331-.564.939-.564.241 0 1.17.076 1.17.076l.215-1.526s-.6-.136-1.578-.136zm7.91 0c-1.758 0-3.06 1.893-3.06 4.031 0 2.468 1.631 3.055 3.021 3.055 1.283 0 1.848-.287 1.848-.287l.307-1.684s-.976.43-1.858.43c-1.877 0-1.548-1.4-1.548-1.4h3.554s.23-1.13.23-1.592c0-1.15-.573-2.553-2.494-2.553zm6.368.073c-.792 0-1.38 1.066-1.38 1.066l.157-.979h-1.645L36 25.57h1.818c.514-2.885.608-5.228 1.837-4.8.215-1.116.424-1.548.658-2.02 0 0-.11-.024-.34-.024zm14.728 0c-.792 0-1.38 1.066-1.38 1.066l.158-.979h-1.645l-1.105 6.757h1.816c.515-2.885.611-5.228 1.84-4.8.215-1.116.423-1.548.658-2.02 0 0-.11-.024-.341-.024zm-21.104 1.451c.998 0 .816 1.129.816 1.22h-1.967c0-.117.186-1.22 1.15-1.22zm23.762.132c.636 0 .963.43.963 1.44 0 .918-.462 2.144-1.42 2.144-.635 0-.934-.526-.934-1.349 0-1.346.616-2.235 1.391-2.235zm-8.734 2.299c.259 0 .313.025.356.037-.006-.001-.007 0 .018.004.033.301-.182 1.712-1.219 1.712-.534 0-.671-.425-.671-.676 0-.49.254-1.078 1.516-1.078zm-28.274.006c.295 0 .327.033.377.042.032.3-.183 1.71-1.223 1.71-.537 0-.676-.424-.676-.675 0-.489.256-1.077 1.522-1.077z" fill="#F4545A"/></svg>