<svg width="11" height="11" fill="none" xmlns="http://www.w3.org/2000/svg"><path fill-rule="evenodd" clip-rule="evenodd" d="M5.5 11a5.5 5.5 0 110-11 5.5 5.5 0 010 11zm.66-6.259v-.813h1.862v-1.24H2.955v1.24h1.86v.813c-1.512.07-2.65.37-2.65.728 0 .359 1.138.658 2.65.728v2.606h1.346V6.196c1.51-.069 2.645-.368 2.645-.727 0-.358-1.135-.658-2.645-.728zm0 1.234c-.037.002-.232.014-.667.014-.347 0-.591-.01-.677-.014-1.337-.058-2.334-.29-2.334-.57 0-.277.997-.51 2.334-.57v.91c.087.005.337.02.683.02.415 0 .623-.017.662-.02v-.91c1.333.06 2.329.293 2.329.57 0 .28-.996.511-2.33.57z" fill="#F4545A"/></svg>