<svg width="12" height="13" fill="none" xmlns="http://www.w3.org/2000/svg"><path d="M11.53 10.609a6.118 6.118 0 00-1.287-1.952 5.99 5.99 0 00-1.907-1.316l-.019-.008a4.071 4.071 0 001.64-3.283C9.957 1.813 8.187 0 6 0 3.814 0 2.043 1.813 2.043 4.05a4.08 4.08 0 001.64 3.285c-.006.003-.013.004-.02.008a5.937 5.937 0 00-1.906 1.316A6.192 6.192 0 000 12.866a.133.133 0 00.036.095.128.128 0 00.092.039h.957a.13.13 0 00.128-.127 4.925 4.925 0 011.4-3.337A4.701 4.701 0 016 8.101a4.7 4.7 0 013.386 1.435 4.925 4.925 0 011.401 3.337.128.128 0 00.128.127h.957a.127.127 0 00.12-.083.134.134 0 00.008-.05 6.21 6.21 0 00-.47-2.258zM6 6.859a2.696 2.696 0 01-1.94-.823 2.824 2.824 0 01-.805-1.986c0-.75.286-1.455.805-1.986a2.696 2.696 0 013.88 0c.519.531.805 1.237.805 1.986 0 .75-.286 1.455-.805 1.986A2.696 2.696 0 016 6.86z" fill="#2D404E" fill-opacity=".1"/></svg>