<svg width="20" height="23" fill="none" xmlns="http://www.w3.org/2000/svg"><path d="M19.09 10.12h-1.93V3.68c0-2.033-1.63-3.68-3.638-3.68H6.477C4.47 0 2.841 1.647 2.841 3.68v6.44H.909a.914.914 0 00-.909.92v11.04c0 .509.406.92.91.92h18.18c.504 0 .91-.411.91-.92V11.04a.914.914 0 00-.91-.92zM4.887 3.68c0-.888.713-1.61 1.591-1.61h7.046a1.6 1.6 0 011.59 1.61v6.44H4.887V3.68zm13.069 17.25H2.044v-8.74h15.91v8.74zm-8.75-3.996v1.523c0 .127.102.23.227.23h1.136a.23.23 0 00.228-.23v-1.523a1.397 1.397 0 00.503-1.544 1.38 1.38 0 00-.496-.693 1.353 1.353 0 00-1.606 0 1.396 1.396 0 00.008 2.237z" fill="#F4545A"/></svg>