<svg width="10" height="13" fill="none" xmlns="http://www.w3.org/2000/svg"><path d="M5.828 8.125H3.325v.813h2.503c.235 0 .432.08.593.24.16.162.241.354.241.578a.77.77 0 01-.24.572.818.818 0 01-.594.235H3.325v1.624a.77.77 0 01-.242.578.81.81 0 01-.586.235.81.81 0 01-.587-.235.775.775 0 01-.241-.578v-1.624H.834a.818.818 0 01-.593-.235A.767.767 0 010 9.756c0-.224.08-.416.241-.577a.806.806 0 01.593-.242h.835v-.812H.834a.818.818 0 01-.593-.235A.767.767 0 010 7.32c0-.224.08-.417.241-.578A.806.806 0 01.834 6.5h.835V.812c0-.22.08-.41.241-.57A.791.791 0 012.49 0h3.338a4.19 4.19 0 012.099.546c.643.364 1.15.857 1.519 1.479.37.622.554 1.301.554 2.038A3.92 3.92 0 019.446 6.1a4.055 4.055 0 01-1.519 1.48 4.19 4.19 0 01-2.1.545zm0-6.5H3.325V6.5h2.503c.695 0 1.286-.24 1.773-.717.487-.478.73-1.054.73-1.727s-.243-1.246-.73-1.72a2.447 2.447 0 00-1.773-.711z" fill="#F4545A"/></svg>