<svg width="27" height="27" fill="none" xmlns="http://www.w3.org/2000/svg"><g clip-path="url(#clip0)"><path d="M13.5 1.604L24.654 6.75h1.502a.844.844 0 01.844.844v3.375a.844.844 0 01-.844.844h-.843v11.812a.843.843 0 01.818.64l.844 3.375a.844.844 0 01-.819 1.048H.844a.843.843 0 01-.819-1.048l.844-3.375a.844.844 0 01.819-.64V11.813H.844A.844.844 0 010 10.969V7.594a.844.844 0 01.844-.844h1.502L13.5 1.604zM6.372 6.75h14.254L13.5 3.46 6.372 6.75zm-2.997 5.063v11.812h1.688V11.813H3.375zm3.375 0v11.812h4.219V11.813H6.75zm5.906 0v11.812h1.688V11.813h-1.688zm3.375 0v11.812h4.219V11.813h-4.219zm5.907 0v11.812h1.687V11.813h-1.688zm3.375-1.688V8.438H1.688v1.687h23.625zm-.659 15.188H2.346L1.924 27h23.152l-.422-1.687z" fill="#F4545A"/></g><defs><clipPath id="clip0"><path fill="#fff" d="M0 0h27v27H0z"/></clipPath></defs></svg>