<svg width="16" height="16" fill="none" xmlns="http://www.w3.org/2000/svg"><path d="M14.155 16h-.105C1.962 15.305.246 5.102.006 1.988A1.847 1.847 0 011.704 0h3.39a1.23 1.23 0 011.143.775l.935 2.302a1.231 1.231 0 01-.27 1.33l-1.31 1.322a5.767 5.767 0 004.662 4.677l1.335-1.323a1.23 1.23 0 011.335-.252l2.32.929A1.23 1.23 0 0116 10.905v3.249A1.847 1.847 0 0114.155 16zM1.85 1.23a.615.615 0 00-.615.616v.05c.283 3.642 2.098 12.258 12.882 12.873a.615.615 0 00.652-.578v-3.286l-2.32-.93-1.765 1.754-.295-.037c-5.352-.67-6.078-6.024-6.078-6.08l-.037-.295L6.022 3.55 5.1 1.23H1.851z" fill="#2D404E" fill-opacity=".1"/></svg>