<svg width="12" height="12" fill="none" xmlns="http://www.w3.org/2000/svg"><path d="M5.924.918c-1.691 0-3.067 1.193-3.067 2.659 0 1.466 1.376 2.658 3.067 2.658 1.69 0 3.066-1.192 3.066-2.658S7.614.918 5.924.918zm0 4.254c-1.015 0-1.84-.716-1.84-1.595 0-.88.825-1.596 1.84-1.596 1.014 0 1.84.716 1.84 1.596 0 .88-.826 1.595-1.84 1.595zm5.519 5.849v-.532c0-2.052-1.926-3.722-4.293-3.722H4.697C2.33 6.767.404 8.437.404 10.49v.532h1.227v-.532c0-1.466 1.375-2.658 3.066-2.658H7.15c1.69 0 3.066 1.192 3.066 2.658v.532h1.227z" fill="#2D404E" fill-opacity=".1"/></svg>