<svg width="70" height="20" fill="none" xmlns="http://www.w3.org/2000/svg"><path d="M50.881.817A15.705 15.705 0 0045.8 0c-5.594 0-9.547 2.633-9.57 6.402-.047 2.77 2.802 4.33 4.954 5.264 2.212.956 2.951 1.551 2.94 2.4-.01 1.305-1.767 1.888-3.384 1.888-2.247 0-3.465-.285-5.344-1.019l-.698-.307-.796 4.353c1.367.52 3.817.976 6.346 1.019 5.959 0 9.844-2.61 9.887-6.636.046-2.207-1.478-3.883-4.727-5.264-1.96-.891-3.187-1.498-3.187-2.411 0-.808 1.048-1.655 3.235-1.655a11.094 11.094 0 014.237.731l.536.222.786-4.192-.134.022zm14.54-.456h-4.374c-1.368 0-2.383.34-2.986 1.604l-8.41 17.758H55.6l1.198-2.909 7.256.01c.182.68.694 2.897.694 2.897H70L65.422.36zM28.176.2h5.663l-3.543 19.371H24.63L28.175.192v.01zm-14.4 10.668l.58 2.697L19.901.36h6.005l-8.934 19.33h-5.979l-4.9-16.369a1.006 1.006 0 00-.196-.374 1.091 1.091 0 00-.34-.272A25.051 25.051 0 000 .754L.068.35h9.137c1.232.042 2.233.405 2.575 1.636l1.995 8.895v-.01zm44.638 1.985l2.268-5.423c-.035.051.466-1.115.75-1.848l.388 1.665 1.312 5.594h-4.718v.012z" fill="#F4545A"/></svg>