<svg width="62" height="62" fill="none" xmlns="http://www.w3.org/2000/svg"><path d="M18.756 56.563l-4.568-3.3a24.76 24.76 0 01-10.24-20.025V27.64h7.897v-3.95h12.833v3.949h8.884v5.598a24.76 24.76 0 01-10.24 20.025l-4.566 3.3z" fill="#21282F" fill-opacity=".2"/><path d="M58.24 0H16.782a2.965 2.965 0 00-2.961 2.961v16.782h-.987a4.943 4.943 0 00-4.836 3.948H0v9.547c0 9.173 4.44 17.856 11.876 23.226l6.88 4.968 6.879-4.968c7.348-5.307 11.762-13.849 11.866-22.901h20.74a2.965 2.965 0 002.961-2.962V2.961A2.965 2.965 0 0058.241 0zM35.538 33.238c0 8.54-4.134 16.626-11.058 21.626l-5.723 4.134-5.724-4.134A26.746 26.746 0 011.974 33.238v-7.573h7.897v-.987a2.965 2.965 0 012.962-2.961H23.69a2.965 2.965 0 012.962 2.961v.987h8.884v7.573zm23.69-2.637a.988.988 0 01-.986.987H37.51v-7.897h-8.984a4.944 4.944 0 00-4.836-3.948h-7.897v-7.897h43.434V30.6zm0-20.73H15.795V7.897h43.434v1.974zm0-3.948H15.795V2.96c0-.544.443-.987.987-.987h41.46c.544 0 .987.443.987.987v2.962z" fill="#2D404E"/><path d="M19.743 15.794h5.923v1.974h-5.923v-1.974zm9.871 0h7.897v1.974h-7.897v-1.974zm0 3.949h7.897v1.974h-7.897v-1.974zm23.691 7.897H41.46V15.794h4.936v1.974h-2.961v7.897h7.897v-2.961h1.974v4.936z" fill="#2D404E"/><path d="M55.28 23.691h-9.872V13.82h9.871v9.871z" fill="#21282F" fill-opacity=".2"/><path fill-rule="evenodd" clip-rule="evenodd" d="M10.498 42.907l2.626 1.507v-4.092l.9-.552.925.552v5.171L17.575 47v-7.306l-1.7-.979 1.7-.979v-7.33l-2.626 1.53v5.172l-1.825 1.055V32.99l-2.626 1.531v8.386zm16.005 0v-3.212l-1.7-.98 1.7-.979v-3.213l-7.076-4.118V47l7.076-4.093zm-4.477-4.744V34.07l1.85 1.08v1.958l-1.85 1.054zm0 5.172v-3.013l1.85-1.08v3.038l-1.85 1.055z" fill="#2D404E"/></svg>