<svg width="58" height="58" fill="none" xmlns="http://www.w3.org/2000/svg"><path d="M50.73 14.758c-.71 0-1.353.277-1.844.72a2.745 2.745 0 00-1.845-.72 2.77 2.77 0 00-2.767 2.767 2.77 2.77 0 002.767 2.767c.712 0 1.354-.277 1.845-.72.49.443 1.134.72 1.845.72a2.77 2.77 0 002.767-2.767 2.77 2.77 0 00-2.767-2.767zm-3.689 3.69a.923.923 0 010-1.845.923.923 0 010 1.844zm3.69 0a.923.923 0 010-1.845.923.923 0 010 1.844z" fill="#2D404E"/><path d="M23.06 5.534h33.205v5.535H23.06V5.534zm2.767 9.224h9.223v4.612h-9.223v-4.612z" fill="#2D404E" fill-opacity=".2"/><path d="M25.827 14.758h3.69v1.845h-3.69v-1.845zm5.533 0h3.69v1.845h-3.69v-1.845zm-5.533 3.69h9.223v1.845h-9.223v-1.845z" fill="#2D404E"/><path d="M54.42 0H24.904a2.77 2.77 0 00-2.767 2.767V18.67a19.432 19.432 0 00-2.767-.221C8.689 18.448 0 27.138 0 37.818s8.689 19.37 19.37 19.37c8.656 0 16.324-5.83 18.645-14.177l-1.778-.493a17.388 17.388 0 01-1.463 3.6h-8.45a26.83 26.83 0 001.31-7.378h6.494v-1.845h-6.494a26.866 26.866 0 00-1.31-7.379h8.46c.19.35.37.707.536 1.07l1.68-.762a19.41 19.41 0 00-4.109-5.842h21.53a2.77 2.77 0 002.767-2.767V2.767A2.77 2.77 0 0054.42 0zM22.146 21.303a28.05 28.05 0 00-.648-.868c.215.026.427.063.64.097v.683c0 .03.007.058.008.088zm1.495 6.368h-8.535c1.472-3.367 3.307-5.784 4.266-6.92.96 1.134 2.796 3.55 4.269 6.92zm-6.398-7.237a30.45 30.45 0 00-4.155 7.237h-7.98c2.79-3.91 7.138-6.628 12.135-7.237zM1.892 38.74h9.213a26.864 26.864 0 001.311 7.379H3.941a17.402 17.402 0 01-2.05-7.38zm0-1.845c.14-2.656.852-5.162 2.05-7.379h8.474a26.832 26.832 0 00-1.31 7.38H1.891zm3.215 11.069h7.98a30.45 30.45 0 004.156 7.237c-4.997-.61-9.346-3.326-12.136-7.237zm9.992 0h8.535c-1.472 3.367-3.308 5.784-4.266 6.92-.96-1.134-2.796-3.55-4.269-6.92zm18.527 0A17.58 17.58 0 0121.5 55.197a30.441 30.441 0 004.152-7.233h7.974zm-9.27-1.845H14.38a25.055 25.055 0 01-1.429-7.38H25.79a24.995 24.995 0 01-1.434 7.38zm1.433-9.224H12.95a25.025 25.025 0 011.433-7.379h9.976a25.055 25.055 0 011.429 7.38zm7.846-9.224h-7.983a30.244 30.244 0 00-1.952-3.977c.365.179.77.288 1.204.288h5.177a17.653 17.653 0 013.554 3.69zm21.708-6.456a.923.923 0 01-.923.922H24.904a.923.923 0 01-.922-.922V2.767c0-.509.414-.922.922-.922H54.42c.509 0 .923.413.923.922v18.448z" fill="#2D404E"/><path d="M43.352 46.119c-5.594 0-10.146-4.552-10.146-10.146 0-5.594 4.551-10.146 10.146-10.146 5.594 0 10.146 4.552 10.146 10.146 0 5.594-4.552 10.146-10.146 10.146z" fill="#2D404E" fill-opacity=".2"/><path fill-rule="evenodd" clip-rule="evenodd" d="M38 38.593l1.805 1.035v-2.812l.618-.38.636.38v3.554l1.805 1.035v-5.02l-1.169-.674 1.17-.673V30l-1.806 1.053v3.554l-1.254.724v-3.554L38 32.83v5.764zm11 0v-2.209l-1.169-.673L49 35.04v-2.21L44.137 30v11.405L49 38.592zm-3.077-3.262V32.52l1.272.742v1.346l-1.272.724zm0 3.555v-2.07l1.272-.742v2.087l-1.272.725z" fill="#2D404E"/></svg>