<svg width="56" height="56" fill="none" xmlns="http://www.w3.org/2000/svg"><path d="M29.861 11.797l7.171 7.17c4.98 0 9.033-4.051 9.033-9.031S42.013.903 37.032.903C32.052.903 28 4.955 28 9.936c0 .322.018.64.052.953.68.106 1.316.415 1.81.908zm3.559 28.319l-3.987-3.987 3.986-3.987 3.987 3.987-3.986 3.987z" fill="#21282F" fill-opacity=".2"/><path d="M36.13 16.258h1.806v-1.806h1.806v-5.42H36.13V7.226h3.613V5.419h-1.806V3.613H36.13v1.806h-1.806v5.42h3.613v1.806h-3.613v1.806h1.806v1.807z" fill="#2D404E"/><path d="M54.194 0H19.87c-.996 0-1.806.81-1.806 1.806v8.659l-8.057 8.056a12.5 12.5 0 00-3.685 8.896c0 .416.02.837.062 1.252l.808 8.087L0 45.748V56h15.192l2.787-13.931c.324-.24.65-.48.982-.723 1.94-1.413 4.023-2.937 5.454-4.815l5.656 5.656a4.146 4.146 0 002.952 1.223 4.145 4.145 0 002.952-1.223l9.826-9.825a4.146 4.146 0 001.223-2.952 4.144 4.144 0 00-1.223-2.952l-6.588-6.587h14.98c.997 0 1.807-.81 1.807-1.806V1.805C56 .81 55.19 0 54.194 0zm-36.13 26.194c0 .369-.054.707-.13 1.03l-1.064-1.419a3.072 3.072 0 01-.612-1.835c0-.692.238-1.37.67-1.91l1.136-1.421v5.555zm-4.353 28H1.806V46.38l6.572-8.214 7.763 3.88-2.43 12.147zm4.185-14.308c-.28.204-.551.406-.825.607l-8.093-4.046-.796-7.958a10.896 10.896 0 01-.053-1.072 10.7 10.7 0 013.156-7.618l6.78-6.78v4.728l-2.548 3.183a4.886 4.886 0 00-1.065 3.04 4.89 4.89 0 00.972 2.918l1.529 2.038c-.622.558-1.472.88-2.501.88v1.807c3.19 0 5.419-2.228 5.419-5.42v-7.48c0-.855.696-1.552 1.553-1.552.944 0 1.262.025 1.682.543.254.313.415.737.468 1.229.245 2.287.813 8.102.813 12.68 0 3.54-3.3 5.946-6.491 8.273zm6.04-25.512l18.648 18.648-1.433 1.432L25.356 18.66c-.1-.806-.389-1.53-.847-2.095-.533-.657-1.105-.952-1.675-1.09l1.102-1.101zm10.76 26.536c-.886.887-2.46.888-3.348 0l-5.953-5.953a7.563 7.563 0 00.696-2.169l2.174 2.174 1.277-1.277-3.363-3.363c-.06-3.023-.31-6.345-.536-8.82l14.23 14.23-5.176 5.178zm10.52-11.5c0 .623-.252 1.234-.693 1.674l-.662.662-18.648-18.65.66-.66c.895-.895 2.455-.895 3.35 0l15.299 15.3a2.35 2.35 0 01.694 1.674zm8.977-11.346H37.407L30.5 11.16a4.144 4.144 0 00-2.952-1.224 4.144 4.144 0 00-2.951 1.223l-4.453 4.453c-.096.04-.183.094-.273.143V1.806h34.323v16.258z" fill="#2D404E"/><path d="M50.58 7.226h1.807V3.613h-3.613v1.806h1.807v1.807zm1.807 5.419h-1.806v1.806h-1.807v1.807h3.613v-3.613zM23.484 5.42h1.806V3.612h-3.613v3.613h1.807V5.419zm3.871 23.22l1.278-1.278 3.613 3.613-1.278 1.277-3.613-3.613z" fill="#2D404E"/></svg>