<svg width="58" height="56" fill="none" xmlns="http://www.w3.org/2000/svg"><path fill-rule="evenodd" clip-rule="evenodd" d="M30.073 10.883C36.112 6.473 41.773 3.081 49.23 0c-.069.976-.45 3.107-2.433 4.294-3.668 1.571-7.661 3.526-11.009 5.754-1.589 1.057-3.32 2.318-5.088 3.674a22.77 22.77 0 00-.625-2.835v-.004z" fill="#F4545A"/><path fill-rule="evenodd" clip-rule="evenodd" d="M35.669 10.969C43.197 5.855 53.697 2.27 57.21 1.14a27.32 27.32 0 01-5.668 5.865c-2.003.702-4.295 1.518-5.184 1.873-1.474.59-8.405 3.706-10.307 4.562a14.783 14.783 0 00-.383-2.469v-.003zm.409 3.22c1.37-.619 9.02-4.06 10.551-4.67 1.255-.5 5.438-1.964 7.48-2.674-1.455 1.756-4.842 5.512-8.31 6.863-1.284.237-2.602.493-3.473.697-1.766.412-5.082 1.472-6.447 1.918a10.63 10.63 0 00.2-2.127v-.007zm-.395 2.924c.901-.296 4.86-1.585 6.806-2.037 1.541-.36 4.564-.899 6.249-1.191-1.675 1.424-5.378 4.283-8.427 4.573l-5.297.35c.276-.544.5-1.112.669-1.696zm-1.068 2.417l9.294-.616c-1.404 1.01-4.383 2.793-7.892 2.741l-2.594-.48a13.38 13.38 0 001.192-1.645zm-1.723 2.251l-.95 1.02c-.241.254-.606.615-1.062 1.052l1.436.6c3.325 1.022 6.098-.596 7.241-1.435l-6.665-1.237zm-2.565 2.596l5.726 2.39c-1.147.512-3.585 1.347-5.643.36L28.474 26.1c.685-.626 1.31-1.211 1.853-1.724zM27.93 26.6l6.118 3.252c-1.052.386-3.241.964-5.485.186l-2.66-1.585a678.86 678.86 0 002.028-1.846V26.6zm-2.569 2.335l5.933 3.543c-.817.333-2.444.79-4.146.03l-3.41-2.108 1.626-1.464-.003-.001zm-2.166 1.952l3.468 2.143.515 2.44-5.825-2.933 1.842-1.65zm-2.401 2.149l6.565 3.307.397 1.91c-2.324-.607-6.48-1.97-8.79-3.59l1.827-1.627h.001z" fill="#F4545A"/><path fill-rule="evenodd" clip-rule="evenodd" d="M38.565 39.563l-9.63-5.952a6.563 6.563 0 003.276-.807v-.592l-1.883-1.122a9.246 9.246 0 002.21-.126c2.32 2.412 4.316 5.384 6.024 8.599h.003zm-8.958-4.714l1.37 4.11c-.744-.132-1.57-.3-2.456-.513-.476-2.293-.83-3.978-1.027-4.9l2.108 1.303h.005zm2.165 4.241l-1.221-3.658 3.252 2.007.739 1.966a32.06 32.06 0 01-2.766-.315h-.004zm7.521 10.946L34.786 38.05l4.4 2.719.104.208c2.278 4.596 3.999 9.577 5.266 14.073-1.23-.606-3.852-2.168-5.265-5.014h.002zm-4.489-9.922l5.22 13.903c-1.266-.584-3.891-2.183-5.193-5.754l-2.818-8.436c1.37.2 2.355.267 2.787.288l.004-.001zm-3.576-.411l4.414 13.204c-1.21-.15-4.393-1.128-5.631-7.23-.5-2.458-.948-4.642-1.328-6.483.927.215 1.784.381 2.549.509h-.004zm.189-17.371c-1.852 1.973-11.424 10.482-13.022 11.9a10.848 10.848 0 01-2.145-2.285c1.659-1.37 9.758-8.065 11.562-9.733 1.535-1.417 3.428-3.169 2.986-7.687a107.825 107.825 0 014.241-3.125c1.262 5.759-1.484 8.665-3.42 10.712l-.204.218h.002z" fill="#F4545A"/><path fill-rule="evenodd" clip-rule="evenodd" d="M27.208 21.816c-1.65 1.527-9.637 8.13-11.344 9.54a14.413 14.413 0 01-1.357-3.003c1.184-1.084 8.549-7.791 15.613-13.305.232 3.861-1.436 5.401-2.798 6.66l-.114.105v.003zm2.836-7.592a216.792 216.792 0 00-7.167 5.837c-.428-.679-.564-2.039-.744-3.069 2.574-2.043 4.97-3.919 7.327-5.659.264.949.459 1.915.583 2.89v.001zm-13.87-3.17c-1.423-.387-3.53-.093-5.07.227l-.794-.364C7.648 9.737 3.96 8.437.064 8.082L0 8.772c3.766.341 7.338 1.59 9.936 2.735l1.132.52c.834.424 1.455.776 1.797.977 1.147-1.482 3.579-.738 3.648 1.114 2.634.764 3.106 5.464 3.65 8.27.692-.6 1.42-1.225 2.175-1.869-1.491-2.134.237-7.726-6.163-9.467l-.002.002z" fill="#F4545A"/><path fill-rule="evenodd" clip-rule="evenodd" d="M16.41 14.816c2.206.784 2.587 5.586 3.136 8.108-.79.69-1.524 1.334-2.183 1.918-.443-4.144-1.655-7.755-2.048-8.849.256-.112.486-.275.674-.478.19-.203.333-.442.422-.701v.002zm-1.79 1.348c.371 1.02 1.693 4.89 2.085 9.266a270.298 270.298 0 00-2.428 2.186c-.637-2.193-.999-4.753-1.39-7.138-.514-3.11-1.51-5.596-3.074-8.295 1.34.64 2.303 1.189 2.73 1.441a1.93 1.93 0 00.357 1.8c.204.25.468.447.767.576.3.129.627.185.954.164zm1.37-7.628l-4.556-1.06.978-3.988 1.446 1.474.224.23.255-.197 3.11-2.403 1.66 3.513.135.287.307-.105 1.974-.679-.978 3.988-4.555-1.06z" fill="#F4545A"/></svg>