<svg width="664" height="893" fill="none" xmlns="http://www.w3.org/2000/svg"><path d="M498.317 221.666c28.457-21.802 56.303-42.075 81.897-59.1 54.326-36.158 119.111-67.87 178.621-93.356 31.379-18.814 37.866-52.327 39.127-68.438C677.55 50.6 585.995 105.45 488.38 176.733a369.799 369.799 0 019.937 44.933z" stroke="#2D404E" stroke-opacity=".5"/><path d="M751.783 143.538h0c14.413-5.763 51.559-18.979 84.025-30.373 34.89-26.705 65.524-58.296 90.908-93.74-58.333 18.798-226.56 76.572-347.586 158.69a240.47 240.47 0 016.1 39.135c31.743-14.292 142.798-64.197 166.553-73.712zm4.759 11.336h-.001c-24.697 9.823-147.775 65.188-170.814 75.594a172.758 172.758 0 01-3.097 33.557c22.615-7.381 75.481-24.249 103.805-30.857 14.136-3.3 35.506-7.451 56.317-11.303 28.03-10.928 55.759-31.578 79.445-53.08 22.94-20.824 42.061-42.42 53.957-56.69-33.7 11.716-99.613 34.805-119.612 42.779zm32.284 71.152c-27.635 4.811-75.08 13.295-99.511 18.994h0c-31.371 7.297-95.026 28.01-110.115 32.95a158.257 158.257 0 01-10.419 26.546l85.039-5.621.007-.001c24.609-2.338 51.906-15.056 76.478-30.112 23.734-14.542 44.875-31.233 58.521-42.756zM543.079 343.121l41.194 7.64c55.567.804 102.953-26.842 126.236-43.358l-148.75 9.862a217.656 217.656 0 01-18.68 25.856zm-18.726 53.035c52.81 16.237 97.015-8.77 116.051-22.514l-106.699-19.797-15.238 16.328-.002.003c-3.812 4.031-9.537 9.706-16.682 16.558l22.57 9.422zm59.175 38.027l-91.504-38.196c-8.62 8.133-18.492 17.38-29.294 27.253l30.755 16.326c16.573 7.945 34.692 8.565 51.014 6.15 15.713-2.325 29.728-7.458 39.029-11.533zm-130.316-2.066a11311.316 11311.316 0 01-32.21 29.327l42.512 25.326c35.491 12.284 70.149 3.583 87.54-2.647l-97.842-52.006zm-41.732 37.861l-25.61 23.059 54.717 33.811c26.788 11.966 52.417 5.21 65.896-.131l-95.003-56.739zm28.649 104.464l-8.099-38.362-55.742-34.451-29.053 26.015 92.894 46.798zm-131.672-12.245c37.208 25.899 103.441 47.702 141.112 57.613l-6.229-29.96-105.967-53.394-28.916 25.741z" stroke="#2D404E" stroke-opacity=".5"/><path d="M493.936 504.907l28.792 17.162.244.145v10.183l-.259.142c-15.754 8.66-33.532 13.192-51.599 13.172l153.036 94.565c-27.439-51.381-59.436-98.856-96.549-137.486a150.251 150.251 0 01-33.665 2.117zm-14.093 60.755l-33.15-20.481c3.229 15.133 8.858 41.916 16.353 78.023a668.225 668.225 0 0038.667 8.091l-21.87-65.633zm16.618 10.208l19.276 57.73c19.658 3.034 34.811 4.413 43.812 5.02L547.9 607.612l-51.439-31.742zm141.431 235.761l-.077-.204-72.582-193.043 70.008 43.261 1.616 3.239 1.035 146.747zm0 0c22.498 45.109 63.768 70.225 84.038 80.365-20.514-72.626-48.33-152.964-85.072-227.11l1.034 146.745zm10.435 63.578l-84.138-224.038c-7.05-.348-22.63-1.421-44.183-4.542l45.443 136.054.003.006c20.683 56.733 62.009 82.676 82.875 92.52zM506.153 644.437a676.678 676.678 0 01-40.26-8.021 29423.95 29423.95 0 0121.39 104.385h0c10.022 49.412 27.909 78.024 45.688 94.583 17.308 16.12 34.552 20.851 44.435 22.197l-71.253-213.144zm61.875-458.647c-21.706 15.111-44.637 32.1-67.94 50.069 3.534 36.58-2.358 62.024-12.278 81.211-9.939 19.225-23.903 32.127-36.347 43.621-29.153 26.946-159.526 134.745-187.205 157.594a175.48 175.48 0 0034.101 36.327c26.62-23.629 178.339-158.529 210.082-191.868h-.034l.788-.842 3.318-3.543.002-.002c15.706-16.607 34.635-36.637 47.098-64.161 12.391-27.365 18.403-62.168 8.415-108.406z" stroke="#2D404E" stroke-opacity=".5"/><path d="M257.457 507.839c28.559-23.568 156.421-129.284 183.37-154.193v-.055l.161-.148 1.847-1.704v-.001c11.055-10.208 23.282-21.505 32.292-38.048 8.912-16.364 14.691-37.895 12.988-68.617-113.875 88.946-232.341 196.783-252.234 214.983a233.17 233.17 0 0021.576 47.783zm229.329-277.331a329.813 329.813 0 00-9.213-45.847c-37.956 28.048-76.567 58.261-118.027 91.17.555 3.184 1.083 6.544 1.622 9.976.87 5.537 1.77 11.263 2.859 16.742 1.732 8.709 3.925 16.674 7.175 22.091 36.504-30.939 76.423-63.747 115.584-94.132zm-224.201-50.667l-.027.04-.343-.093c-11.458-3.117-25.706-3.499-40.234-2.446-14.521 1.053-29.284 3.537-41.752 6.132l-.161.033-.15-.068-12.878-5.908-.002-.002c-43.053-19.062-102.607-40.065-165.545-45.898L.544 141.82c60.98 5.617 118.771 25.84 160.833 44.372l.007.003 18.355 8.426.009.005.009.004c13.245 6.737 23.172 12.348 28.805 15.645 18.907-23.824 58.344-11.781 59.78 18.344 21.417 6.416 33.99 28.716 42.308 54.884 6.292 19.792 10.19 41.936 13.61 61.36 1.074 6.098 2.1 11.929 3.139 17.335a4976.191 4976.191 0 0134.27-29.453c-5.94-8.733-8.69-20.85-11.05-34.458-.497-2.868-.977-5.805-1.466-8.793-1.869-11.431-3.863-23.624-7.419-35.698-4.481-15.218-11.433-30.206-23.711-43.147-12.221-12.882-29.747-23.765-55.438-30.808z" stroke="#2D404E" stroke-opacity=".5"/><path d="M287.542 260.739c-5.615-9.502-12.481-16.565-21.052-19.778a32.554 32.554 0 01-6.767 11.043 33.558 33.558 0 01-10.683 7.679c6.506 18.18 25.78 75.914 32.989 142.248a6183.856 6183.856 0 0134.473-30.275c-1.618-7.466-3.149-16.148-4.783-25.418a2736.12 2736.12 0 00-1.835-10.326c-2.392-13.25-5.114-27.201-8.674-40.268-3.56-13.069-7.951-25.229-13.668-34.905zm-127.136-61.982c24.926 43.286 40.857 83.339 49.11 133.322h0c.941 5.731 1.872 11.522 2.808 17.346 5.342 33.236 10.854 67.525 19.516 97.615 7.715-7.046 21.097-19.164 38.597-34.758-6.337-70.323-27.461-132.554-33.629-149.567a34.192 34.192 0 01-15.314-2.726 33.333 33.333 0 01-12.633-9.489 32.2 32.2 0 01-6.682-14.121 31.775 31.775 0 01.684-15.154c-6.918-4.082-21.831-12.565-42.457-22.468zM348.402 91.74l-31.149 10.712-.001.001-4.97 1.704-.423.145-.191-.405-2.194-4.652h0l-26.668-56.42-49.948 38.586h0l-4.137 3.192-.352.272-.311-.318-3.637-3.72h-.001L201.6 57.566l-15.521 63.315 73.396 17.09h0l73.408 17.079 15.519-63.31z" stroke="#2D404E" stroke-opacity=".5"/></svg>