<svg width="59" height="52" fill="none" xmlns="http://www.w3.org/2000/svg"><path d="M56.05 25.624h-.983V4.974A4.923 4.923 0 0050.15.057H8.85a4.923 4.923 0 00-4.917 4.917v14.75H2.95A2.95 2.95 0 000 22.674V48.24a2.95 2.95 0 002.95 2.95h37.367c.543 0 .983-.44.983-.983a4.923 4.923 0 00-4.917-4.916h-2.95v-5.9h11.8v8.85a2.95 2.95 0 002.95 2.95h7.867A2.95 2.95 0 0059 48.24V28.573a2.95 2.95 0 00-2.95-2.95zM21.633 48.24c0 .543-.44.984-.983.984H2.95a.983.983 0 01-.983-.983v-.984h19.666v.983zm0-2.95H1.967V22.675c0-.543.44-.983.983-.983h17.7c.543 0 .983.44.983.983V45.29zm14.75 1.967a2.956 2.956 0 012.782 1.967H23.42a2.9 2.9 0 00.181-.983v-.984h12.783zM23.6 45.291v-5.9h1.967v5.9H23.6zm3.933 0v-5.9h3.934v5.9h-3.934zm17.7-7.867H23.6v-5.9h21.633v5.9zm0-8.85v.983H23.6v-6.883a2.914 2.914 0 00-.336-1.338c.015-.014.034-.018.048-.033l9.735-9.735a.983.983 0 00-1.39-1.39l-9.736 9.735c-.023.024-.033.056-.054.081a2.913 2.913 0 00-1.217-.27H5.9V4.974a2.95 2.95 0 012.95-2.95h41.3a2.95 2.95 0 012.95 2.95v20.65h-4.917a2.95 2.95 0 00-2.95 2.95zm11.8 19.666c0 .543-.44.984-.983.984h-7.867a.983.983 0 01-.983-.983v-.984h9.833v.983zm0-2.95H47.2V28.575c0-.543.44-.984.983-.984h7.867c.543 0 .983.44.983.984V45.29z" fill="#F4545A"/><path d="M11.75 31.693a.984.984 0 00-1.39 0l-4.172 4.171a.983.983 0 101.39 1.39l4.172-4.17c.175-.305-.177-.883 0-1.391zm5.876 0a.983.983 0 00-1.366 0l-4.172 4.171a.983.983 0 101.367 1.415l.024-.024 4.171-4.172a.983.983 0 00-.024-1.39zm21.395-21.514a.984.984 0 00-1.366 0l-9.735 9.735a.984.984 0 101.39 1.39l9.735-9.735a.983.983 0 00-.024-1.39zm15.157 24.176a.983.983 0 00-1.366 0l-2.781 2.78a.983.983 0 101.39 1.391l2.781-2.78a.983.983 0 00-.024-1.391zM29.52 33.49h-.01a.983.983 0 00.01 1.967.983.983 0 000-1.967zm1.947-29.499h-3.934a.983.983 0 100 1.967h3.934a.983.983 0 000-1.967z" fill="#F4545A"/></svg>