<svg width="49" height="60" fill="none" xmlns="http://www.w3.org/2000/svg"><path d="M24.5 17.733a1.167 1.167 0 00-1.166 1.224l-.074.007h.029l.045-.003a1.168 1.168 0 002.331-.002c.002-.02.002-.04.002-.059 0-.644-.523-1.167-1.167-1.167z" fill="#F4545A"/><path d="M48.612 7.105a1.168 1.168 0 00-.907-.29A30.734 30.734 0 0144.333 7C37 7 29.636 3.502 25.193.227a1.167 1.167 0 00-1.385 0C19.364 3.502 12.002 7 4.667 7c-1.126 0-2.26-.062-3.372-.185A1.167 1.167 0 000 7.975V28.32c0 14.536 10.662 27.1 24.149 31.359a1.164 1.164 0 00.702 0C38.326 55.424 49 42.868 49 28.321V7.974c0-.332-.141-.648-.388-.869zm-1.945 21.216c0 12.851-9.097 24.733-22.167 29.02-13.07-4.286-22.167-16.169-22.167-29.02V9.25c.776.055 1.557.082 2.334.082 7.527 0 15.039-3.389 19.833-6.731 4.794 3.342 12.306 6.731 19.833 6.731.777 0 1.558-.027 2.334-.082v19.07z" fill="#F4545A"/><path d="M43.214 11.643c-5.783-.234-12.383-2.371-18.106-5.862a1.167 1.167 0 00-1.215 0c-5.724 3.491-12.324 5.628-18.107 5.862-.625.025-1.12.54-1.12 1.166V28.32c0 11.274 7.989 22.131 19.426 26.403a1.167 1.167 0 00.816 0c11.438-4.272 19.425-15.13 19.425-26.403V12.809c0-.626-.494-1.14-1.119-1.166zM42 28.321c0 10.186-7.174 20.02-17.5 24.061C14.174 48.342 7 38.508 7 28.321V13.909c7.51-.568 13.943-3.682 17.5-5.772 3.557 2.09 9.99 5.204 17.5 5.772v14.412z" fill="#F4545A"/><path d="M29.533 18.759a1.167 1.167 0 10-.92 2.145A10.508 10.508 0 0135 30.567c0 5.966-4.907 11.2-10.5 11.2-5.49 0-10.586-5.136-10.498-11.42.128-4.255 2.514-7.785 6.384-9.444a1.167 1.167 0 10-.92-2.144c-4.659 1.997-7.646 6.414-7.797 11.528v.019c-.104 7.192 5.613 13.794 12.83 13.794 7.185 0 12.834-6.546 12.834-13.533a12.84 12.84 0 00-7.8-11.808z" fill="#F4545A"/><path d="M31.158 26.242a1.167 1.167 0 00-1.65 0l-7.341 7.342-3.842-3.842a1.167 1.167 0 10-1.65 1.65l4.667 4.667a1.163 1.163 0 001.65 0l8.166-8.167a1.167 1.167 0 000-1.65z" fill="#F4545A"/></svg>