<svg width="51" height="52" fill="none" xmlns="http://www.w3.org/2000/svg"><path d="M19.822 4.175h-5.777a.996.996 0 000 1.992h5.777a.996.996 0 000-1.992zm-2.888 41.039c-.262 0-.52.106-.705.292a1.004 1.004 0 00-.291.704c0 .262.106.519.291.704.186.185.443.292.705.292.262 0 .519-.107.704-.292.185-.185.292-.442.292-.704 0-.262-.107-.519-.292-.704a1.003 1.003 0 00-.704-.292z" fill="#F4545A"/><path d="M48.012 17.323H33.867V5.171a4.986 4.986 0 00-4.98-4.98H4.98A4.986 4.986 0 000 5.17v15.954a.996.996 0 001.992 0V10.151h29.883v7.172H28.09a2.992 2.992 0 00-2.988 2.988V41.23H1.992V30.09a.996.996 0 00-1.992 0v16.12a4.986 4.986 0 004.98 4.98h43.032A2.992 2.992 0 0051 48.202v-27.89a2.992 2.992 0 00-2.988-2.989zM1.992 8.16V5.171A2.992 2.992 0 014.98 2.183h23.907a2.992 2.992 0 012.988 2.988v2.988H1.992zm0 38.051v-2.988h23.11v4.98c0 .35.06.684.17.996H4.98a2.992 2.992 0 01-2.988-2.988zm26.098 2.988a.997.997 0 01-.996-.996v-27.89c0-.55.447-.997.996-.997h2.191v29.883H28.09zm4.183 0V19.315h3.188v29.883h-3.188zm16.735-.996c0 .55-.447.996-.996.996H37.453V19.315h10.559c.549 0 .996.447.996.996v27.891z" fill="#F4545A"/><path d="M43.23 38.44a3.79 3.79 0 00-3.785 3.786 3.79 3.79 0 003.785 3.785 3.79 3.79 0 003.786-3.785 3.79 3.79 0 00-3.785-3.786zm0 5.579a1.795 1.795 0 01-1.792-1.793c0-.989.804-1.793 1.792-1.793a1.794 1.794 0 010 3.586zM.996 26.604a1 1 0 00.996-.996.998.998 0 00-.292-.704 1.004 1.004 0 00-.704-.292 1 1 0 00-.704.292 1.003 1.003 0 00-.292.704 1 1 0 00.996.996zm12.532 4.676a.996.996 0 00-1.09 1.666c1.412.924 2.359 1.17 3.632 1.224v1.22a.996.996 0 001.992 0v-1.319c2.342-.477 3.71-2.416 4.015-4.227.393-2.338-.83-4.371-3.117-5.18a46.086 46.086 0 01-.898-.326v-5.21c.818.196 1.301.612 1.334.641a.996.996 0 001.348-1.466c-.06-.055-1.053-.95-2.682-1.204V15.99a.996.996 0 00-1.992 0v1.153a6.5 6.5 0 00-.631.156c-1.503.452-2.626 1.74-2.931 3.358-.278 1.474.193 2.894 1.228 3.705.582.457 1.313.874 2.334 1.32v6.495c-.934-.046-1.527-.233-2.542-.898zm1.437-8.485c-.447-.351-.639-1.03-.5-1.77.131-.693.663-1.551 1.605-1.835.02-.006-.019.006 0 0v4.289a7.008 7.008 0 01-1.105-.684zm3.33 3.748c2.029.717 1.903 2.455 1.817 2.97-.169 1.003-.865 2.068-2.05 2.49V26.46l.233.083z" fill="#F4545A"/></svg>