<svg width="57" height="57" fill="none" xmlns="http://www.w3.org/2000/svg"><path d="M52.564 7.618h-3.6V3.58c0-1.87-1.52-3.39-3.389-3.39H10.848a3.393 3.393 0 00-3.39 3.39v4.038h-3.6A3.863 3.863 0 000 11.477v30.78a3.815 3.815 0 003.81 3.811h3.485a1.102 1.102 0 000-2.204H3.81c-.886 0-1.607-.72-1.607-1.606V39.11h52.015v3.148c0 .886-.72 1.606-1.607 1.606H16.99a1.102 1.102 0 000 2.204h4.714l-.74 5.459a3.138 3.138 0 01-3.123 2.808h-.003c-.012.002-.03 0-.044 0l-.04.003H16.09a1.102 1.102 0 100 2.204h24.241a1.102 1.102 0 000-2.204H38.67c-.014 0-.027-.002-.04-.003h-.048a3.138 3.138 0 01-3.123-2.809l-.74-5.458h17.892a3.815 3.815 0 003.811-3.81V11.477a3.863 3.863 0 00-3.859-3.859zm-19.29 44.194c.11.943.46 1.805.985 2.527H22.163a5.33 5.33 0 00.986-2.527l.779-5.744h8.567l.78 5.744zM9.662 3.58c0-.654.532-1.186 1.186-1.186h34.727c.654 0 1.185.532 1.185 1.186v4.038H9.663V3.58zm-7.458 7.897c0-.913.742-1.655 1.655-1.655h3.6v27.084H2.203v-25.43zm7.458 25.429V9.822h37.099v27.084H9.662zm39.302 0V9.822h3.6c.913 0 1.655.742 1.655 1.655v25.429h-5.255z" fill="#F4545A"/><path d="M13.489 4.11c-.81-.541-1.901.208-1.686 1.157.101.447.476.79.93.851a1.11 1.11 0 001.15-.646 1.11 1.11 0 00-.394-1.363zm3.879 0c-.832-.556-1.941.25-1.674 1.21.126.452.539.782 1.008.807.47.024.912-.269 1.081-.705a1.11 1.11 0 00-.415-1.313zm3.085-.166a1.11 1.11 0 00-.872.913 1.11 1.11 0 00.642 1.175c.922.408 1.877-.59 1.433-1.494a1.113 1.113 0 00-1.203-.594zm5.783 21.918a1.102 1.102 0 001.559 0l4.746-4.745 3.369 3.369a1.102 1.102 0 001.559 0l3.517-3.518a1.102 1.102 0 00-1.558-1.558l-2.739 2.738-3.37-3.37a1.102 1.102 0 00-1.558 0l-4.745 4.747-2.004-2.004a1.102 1.102 0 00-1.558 0l-5.759 5.759V15.54a1.102 1.102 0 00-2.204 0v13.623h-1.825a1.102 1.102 0 000 2.204h1.825v1.742a1.102 1.102 0 002.204 0v-1.742h22.512a1.102 1.102 0 000-2.204H18.929l5.304-5.304 2.003 2.003zm-13.07 18.683a1.11 1.11 0 00-1.1-.677 1.11 1.11 0 00-.98.805c-.265.954.823 1.75 1.654 1.223.445-.283.628-.864.426-1.35z" fill="#F4545A"/></svg>