<svg width="52" height="59" fill="none" xmlns="http://www.w3.org/2000/svg"><path d="M41.218 41.587l-5.373-1.79-1.929-3.858c1.738-1.769 2.945-4.11 3.351-6.55l.24-1.442h2.058a3.395 3.395 0 003.392-3.391v-7.122C42.956 8.084 35.35.478 26 .478c-9.374 0-16.957 7.584-16.957 16.956v7.122c0 1.473.946 2.73 2.261 3.197v1.325a3.395 3.395 0 003.392 3.39h.992a12.26 12.26 0 002.395 3.473l-1.928 3.856-5.373 1.79C4.534 43.67 0 50.247 0 57.225c0 .625.506 1.13 1.13 1.13h49.74a1.13 1.13 0 001.13-1.13c0-6.978-4.534-13.555-10.782-15.638zm-.522-17.031c0 .623-.508 1.13-1.13 1.13H37.84c.287-2.226.479-4.594.556-6.927l.006-.195h2.294v5.992zm-28.261 1.13c-.623 0-1.13-.507-1.13-1.13v-5.992h2.294l.012.356v.013c.08 2.27.269 4.576.55 6.753h-1.726zm2.26 4.522c-.623 0-1.13-.507-1.13-1.13v-1.13h.927l.24 1.441c.046.275.103.548.168.819h-.204zm-1.128-13.904h-2.22C11.92 8.727 18.243 2.738 26 2.738c7.723 0 14.074 5.989 14.653 13.566h-2.22c-.081-6.243-5.165-11.305-11.421-11.305h-2.024c-6.255 0-11.34 5.062-11.42 11.305zM24.988 7.26h2.024c5.065 0 9.165 4.143 9.162 9.203 0 .356-.003.665-.009.947v.011l-1.414-.202a18.164 18.164 0 01-10.212-5.106 1.13 1.13 0 00-.8-.331 10.227 10.227 0 00-7.863 3.72c.473-4.603 4.365-8.242 9.112-8.242zm-7.744 22.948c-.566-1.882-1.214-7.422-1.357-10.971l1.522-2.029a7.957 7.957 0 015.883-3.152 20.446 20.446 0 0011.14 5.401l1.664.238a69.592 69.592 0 01-.665 6.91v.002c-.104.7-.185 1.15-.394 2.41-.598 3.59-3.278 6.838-6.815 7.722a9.195 9.195 0 01-4.444 0c-2.208-.552-4.233-2.08-5.54-4.27h2.304a3.396 3.396 0 003.197 2.26H26a3.39 3.39 0 100-6.782h-2.26a3.393 3.393 0 00-3.2 2.261h-3.296zm6.4 8.82a11.416 11.416 0 004.204.095l-1.997 2.111-2.207-2.207zm.653 3.85l-3.585 3.791a43.06 43.06 0 01-2.531-5.868l1.346-2.693 4.77 4.77zm7.984-5.153L33.82 40.8a43.07 43.07 0 01-2.531 5.871l-3.838-3.837 4.831-5.11zm-9.672-6.387c0-.624.506-1.13 1.13-1.13H26a1.13 1.13 0 010 2.26h-2.26a1.131 1.131 0 01-1.131-1.13zM2.306 56.095c.448-5.6 4.175-10.69 9.19-12.363l4.76-1.586a45.314 45.314 0 003.217 6.98l.006.011a45.324 45.324 0 003.094 4.725l1.391 2.233H2.306zM26 55.087l-1.533-2.461a1.162 1.162 0 00-.055-.08 43.081 43.081 0 01-2.547-3.806l4.031-4.263 4.248 4.248a43.07 43.07 0 01-2.556 3.82c-.055.074.023-.042-1.588 2.542zm2.036 1.008l1.39-2.233a45.317 45.317 0 003.116-4.762l.017-.03.002-.004a45.27 45.27 0 003.184-6.92l4.758 1.586c5.016 1.673 8.743 6.763 9.19 12.363H28.037z" fill="#F4545A"/></svg>